<mxfile host="app.diagrams.net" modified="2023-09-19T15:18:58.072Z" agent="Mozilla/5.0 (Windows NT 10.0; Win64; x64) AppleWebKit/537.36 (KHTML, like Gecko) Chrome/116.0.0.0 Safari/537.36" etag="dRFC6Uih_sU3ziOfXm22" version="21.7.5" type="device">
  <diagram name="Page-1" id="zDtxhvWKmtjvH-ZGrpPv">
    <mxGraphModel dx="2094" dy="487" grid="1" gridSize="10" guides="1" tooltips="1" connect="1" arrows="1" fold="1" page="1" pageScale="1" pageWidth="850" pageHeight="1100" math="0" shadow="0">
      <root>
        <mxCell id="0" />
        <mxCell id="1" parent="0" />
        <mxCell id="4OK2XnqKNqhnvnKQo9YL-5" style="edgeStyle=orthogonalEdgeStyle;rounded=0;orthogonalLoop=1;jettySize=auto;html=1;" parent="1" source="4OK2XnqKNqhnvnKQo9YL-1" target="4OK2XnqKNqhnvnKQo9YL-4" edge="1">
          <mxGeometry relative="1" as="geometry" />
        </mxCell>
        <mxCell id="4OK2XnqKNqhnvnKQo9YL-1" value="Start" style="ellipse;whiteSpace=wrap;html=1;" parent="1" vertex="1">
          <mxGeometry x="160" y="20" width="120" height="80" as="geometry" />
        </mxCell>
        <mxCell id="4OK2XnqKNqhnvnKQo9YL-7" value="" style="edgeStyle=orthogonalEdgeStyle;rounded=0;orthogonalLoop=1;jettySize=auto;html=1;" parent="1" source="4OK2XnqKNqhnvnKQo9YL-4" target="iodD-ADhZu1srqg-s7n0-1" edge="1">
          <mxGeometry relative="1" as="geometry">
            <mxPoint x="590" y="60" as="targetPoint" />
          </mxGeometry>
        </mxCell>
        <mxCell id="4OK2XnqKNqhnvnKQo9YL-4" value="Input Type of Weather, Accumulation Amount and Temperature" style="rounded=1;whiteSpace=wrap;html=1;" parent="1" vertex="1">
          <mxGeometry x="350" y="27.5" width="200" height="65" as="geometry" />
        </mxCell>
        <mxCell id="iodD-ADhZu1srqg-s7n0-59" style="edgeStyle=orthogonalEdgeStyle;rounded=0;orthogonalLoop=1;jettySize=auto;html=1;entryX=0;entryY=0.5;entryDx=0;entryDy=0;" edge="1" parent="1" source="iodD-ADhZu1srqg-s7n0-1" target="iodD-ADhZu1srqg-s7n0-2">
          <mxGeometry relative="1" as="geometry" />
        </mxCell>
        <mxCell id="iodD-ADhZu1srqg-s7n0-104" style="edgeStyle=orthogonalEdgeStyle;rounded=0;orthogonalLoop=1;jettySize=auto;html=1;entryX=0;entryY=0.5;entryDx=0;entryDy=0;" edge="1" parent="1" source="iodD-ADhZu1srqg-s7n0-1" target="iodD-ADhZu1srqg-s7n0-103">
          <mxGeometry relative="1" as="geometry" />
        </mxCell>
        <mxCell id="iodD-ADhZu1srqg-s7n0-1" value="Is Weather Mixed?" style="rhombus;whiteSpace=wrap;html=1;" vertex="1" parent="1">
          <mxGeometry x="590" y="27.5" width="100" height="100" as="geometry" />
        </mxCell>
        <mxCell id="iodD-ADhZu1srqg-s7n0-60" style="edgeStyle=orthogonalEdgeStyle;rounded=0;orthogonalLoop=1;jettySize=auto;html=1;entryX=0.5;entryY=0;entryDx=0;entryDy=0;exitX=0.5;exitY=1;exitDx=0;exitDy=0;" edge="1" parent="1" source="iodD-ADhZu1srqg-s7n0-2" target="iodD-ADhZu1srqg-s7n0-4">
          <mxGeometry relative="1" as="geometry">
            <Array as="points">
              <mxPoint x="610" y="180" />
              <mxPoint x="610" y="150" />
            </Array>
          </mxGeometry>
        </mxCell>
        <mxCell id="iodD-ADhZu1srqg-s7n0-62" style="edgeStyle=orthogonalEdgeStyle;rounded=0;orthogonalLoop=1;jettySize=auto;html=1;entryX=0;entryY=0.5;entryDx=0;entryDy=0;exitX=0.5;exitY=1;exitDx=0;exitDy=0;" edge="1" parent="1" source="iodD-ADhZu1srqg-s7n0-2" target="iodD-ADhZu1srqg-s7n0-3">
          <mxGeometry relative="1" as="geometry">
            <Array as="points">
              <mxPoint x="770" y="180" />
              <mxPoint x="770" y="180" />
            </Array>
          </mxGeometry>
        </mxCell>
        <mxCell id="iodD-ADhZu1srqg-s7n0-2" value="Accumulation &amp;lt;= 3.5?" style="rhombus;whiteSpace=wrap;html=1;" vertex="1" parent="1">
          <mxGeometry x="690" y="80" width="110" height="100" as="geometry" />
        </mxCell>
        <mxCell id="iodD-ADhZu1srqg-s7n0-66" style="edgeStyle=orthogonalEdgeStyle;rounded=0;orthogonalLoop=1;jettySize=auto;html=1;entryX=1;entryY=0.5;entryDx=0;entryDy=0;" edge="1" parent="1" source="iodD-ADhZu1srqg-s7n0-3" target="iodD-ADhZu1srqg-s7n0-56">
          <mxGeometry relative="1" as="geometry">
            <Array as="points">
              <mxPoint x="940" y="180" />
              <mxPoint x="940" y="850" />
            </Array>
          </mxGeometry>
        </mxCell>
        <mxCell id="iodD-ADhZu1srqg-s7n0-3" value="Display No Action Required" style="rounded=1;whiteSpace=wrap;html=1;" vertex="1" parent="1">
          <mxGeometry x="800" y="150" width="120" height="60" as="geometry" />
        </mxCell>
        <mxCell id="iodD-ADhZu1srqg-s7n0-17" style="edgeStyle=orthogonalEdgeStyle;rounded=0;orthogonalLoop=1;jettySize=auto;html=1;entryX=0.5;entryY=0;entryDx=0;entryDy=0;" edge="1" parent="1" source="iodD-ADhZu1srqg-s7n0-4" target="iodD-ADhZu1srqg-s7n0-11">
          <mxGeometry relative="1" as="geometry">
            <Array as="points">
              <mxPoint x="655" y="200" />
            </Array>
          </mxGeometry>
        </mxCell>
        <mxCell id="iodD-ADhZu1srqg-s7n0-25" style="edgeStyle=orthogonalEdgeStyle;rounded=0;orthogonalLoop=1;jettySize=auto;html=1;" edge="1" parent="1" source="iodD-ADhZu1srqg-s7n0-4" target="iodD-ADhZu1srqg-s7n0-5">
          <mxGeometry relative="1" as="geometry" />
        </mxCell>
        <mxCell id="iodD-ADhZu1srqg-s7n0-4" value="Accumulation &amp;gt;3.5 - 5.75 cm?" style="rhombus;whiteSpace=wrap;html=1;" vertex="1" parent="1">
          <mxGeometry x="490" y="150" width="110" height="100" as="geometry" />
        </mxCell>
        <mxCell id="iodD-ADhZu1srqg-s7n0-38" style="edgeStyle=orthogonalEdgeStyle;rounded=0;orthogonalLoop=1;jettySize=auto;html=1;exitX=0.5;exitY=1;exitDx=0;exitDy=0;entryX=0.5;entryY=0;entryDx=0;entryDy=0;" edge="1" parent="1" source="iodD-ADhZu1srqg-s7n0-5" target="iodD-ADhZu1srqg-s7n0-29">
          <mxGeometry relative="1" as="geometry" />
        </mxCell>
        <mxCell id="iodD-ADhZu1srqg-s7n0-39" style="edgeStyle=orthogonalEdgeStyle;rounded=0;orthogonalLoop=1;jettySize=auto;html=1;entryX=0.5;entryY=0;entryDx=0;entryDy=0;" edge="1" parent="1" source="iodD-ADhZu1srqg-s7n0-5" target="iodD-ADhZu1srqg-s7n0-6">
          <mxGeometry relative="1" as="geometry">
            <Array as="points">
              <mxPoint x="230" y="200" />
              <mxPoint x="230" y="200" />
            </Array>
          </mxGeometry>
        </mxCell>
        <mxCell id="iodD-ADhZu1srqg-s7n0-5" value="Accumulation &amp;gt;5.75- 16.5 cm?" style="rhombus;whiteSpace=wrap;html=1;" vertex="1" parent="1">
          <mxGeometry x="290" y="145" width="110" height="110" as="geometry" />
        </mxCell>
        <mxCell id="iodD-ADhZu1srqg-s7n0-51" style="edgeStyle=orthogonalEdgeStyle;rounded=0;orthogonalLoop=1;jettySize=auto;html=1;entryX=0.5;entryY=0;entryDx=0;entryDy=0;" edge="1" parent="1" source="iodD-ADhZu1srqg-s7n0-6" target="iodD-ADhZu1srqg-s7n0-42">
          <mxGeometry relative="1" as="geometry">
            <Array as="points">
              <mxPoint x="15" y="310" />
            </Array>
          </mxGeometry>
        </mxCell>
        <mxCell id="iodD-ADhZu1srqg-s7n0-53" style="edgeStyle=orthogonalEdgeStyle;rounded=0;orthogonalLoop=1;jettySize=auto;html=1;" edge="1" parent="1" source="iodD-ADhZu1srqg-s7n0-6" target="iodD-ADhZu1srqg-s7n0-7">
          <mxGeometry relative="1" as="geometry">
            <Array as="points">
              <mxPoint x="250" y="450" />
              <mxPoint x="295" y="450" />
            </Array>
          </mxGeometry>
        </mxCell>
        <mxCell id="iodD-ADhZu1srqg-s7n0-6" value="Accumulation &amp;gt; -16.5 - 40.0 cm?" style="rhombus;whiteSpace=wrap;html=1;" vertex="1" parent="1">
          <mxGeometry x="140" y="200" width="110" height="110" as="geometry" />
        </mxCell>
        <mxCell id="iodD-ADhZu1srqg-s7n0-55" style="edgeStyle=orthogonalEdgeStyle;rounded=0;orthogonalLoop=1;jettySize=auto;html=1;entryX=0.5;entryY=0;entryDx=0;entryDy=0;" edge="1" parent="1" source="iodD-ADhZu1srqg-s7n0-7" target="iodD-ADhZu1srqg-s7n0-54">
          <mxGeometry relative="1" as="geometry">
            <Array as="points">
              <mxPoint x="410" y="620" />
            </Array>
          </mxGeometry>
        </mxCell>
        <mxCell id="iodD-ADhZu1srqg-s7n0-7" value="Accumulation &amp;gt;40.0 cm?" style="rhombus;whiteSpace=wrap;html=1;" vertex="1" parent="1">
          <mxGeometry x="240" y="510" width="110" height="110" as="geometry" />
        </mxCell>
        <mxCell id="iodD-ADhZu1srqg-s7n0-19" style="edgeStyle=orthogonalEdgeStyle;rounded=0;orthogonalLoop=1;jettySize=auto;html=1;" edge="1" parent="1" source="iodD-ADhZu1srqg-s7n0-11" target="iodD-ADhZu1srqg-s7n0-14">
          <mxGeometry relative="1" as="geometry" />
        </mxCell>
        <mxCell id="iodD-ADhZu1srqg-s7n0-23" style="edgeStyle=orthogonalEdgeStyle;rounded=0;orthogonalLoop=1;jettySize=auto;html=1;entryX=0.5;entryY=0;entryDx=0;entryDy=0;" edge="1" parent="1" source="iodD-ADhZu1srqg-s7n0-11" target="iodD-ADhZu1srqg-s7n0-12">
          <mxGeometry relative="1" as="geometry">
            <Array as="points">
              <mxPoint x="620" y="290" />
              <mxPoint x="620" y="290" />
            </Array>
          </mxGeometry>
        </mxCell>
        <mxCell id="iodD-ADhZu1srqg-s7n0-11" value="Temp &amp;lt;-15.0?" style="rhombus;whiteSpace=wrap;html=1;" vertex="1" parent="1">
          <mxGeometry x="615" y="210" width="80" height="80" as="geometry" />
        </mxCell>
        <mxCell id="iodD-ADhZu1srqg-s7n0-20" style="edgeStyle=orthogonalEdgeStyle;rounded=0;orthogonalLoop=1;jettySize=auto;html=1;" edge="1" parent="1" source="iodD-ADhZu1srqg-s7n0-12" target="iodD-ADhZu1srqg-s7n0-15">
          <mxGeometry relative="1" as="geometry" />
        </mxCell>
        <mxCell id="iodD-ADhZu1srqg-s7n0-24" style="edgeStyle=orthogonalEdgeStyle;rounded=0;orthogonalLoop=1;jettySize=auto;html=1;entryX=0.5;entryY=0;entryDx=0;entryDy=0;" edge="1" parent="1" source="iodD-ADhZu1srqg-s7n0-12" target="iodD-ADhZu1srqg-s7n0-13">
          <mxGeometry relative="1" as="geometry">
            <Array as="points">
              <mxPoint x="630" y="370" />
              <mxPoint x="630" y="370" />
            </Array>
          </mxGeometry>
        </mxCell>
        <mxCell id="iodD-ADhZu1srqg-s7n0-12" value="Temp -15.0 - 7.0?" style="rhombus;whiteSpace=wrap;html=1;" vertex="1" parent="1">
          <mxGeometry x="560" y="290" width="80" height="80" as="geometry" />
        </mxCell>
        <mxCell id="iodD-ADhZu1srqg-s7n0-22" style="edgeStyle=orthogonalEdgeStyle;rounded=0;orthogonalLoop=1;jettySize=auto;html=1;" edge="1" parent="1" source="iodD-ADhZu1srqg-s7n0-13" target="iodD-ADhZu1srqg-s7n0-16">
          <mxGeometry relative="1" as="geometry" />
        </mxCell>
        <mxCell id="iodD-ADhZu1srqg-s7n0-13" value="Temp &amp;gt;- 7.0?" style="rhombus;whiteSpace=wrap;html=1;" vertex="1" parent="1">
          <mxGeometry x="610" y="370" width="80" height="80" as="geometry" />
        </mxCell>
        <mxCell id="iodD-ADhZu1srqg-s7n0-74" style="edgeStyle=orthogonalEdgeStyle;rounded=0;orthogonalLoop=1;jettySize=auto;html=1;entryX=1;entryY=0.5;entryDx=0;entryDy=0;" edge="1" parent="1" source="iodD-ADhZu1srqg-s7n0-14" target="iodD-ADhZu1srqg-s7n0-56">
          <mxGeometry relative="1" as="geometry">
            <Array as="points">
              <mxPoint x="920" y="250" />
              <mxPoint x="920" y="850" />
            </Array>
          </mxGeometry>
        </mxCell>
        <mxCell id="iodD-ADhZu1srqg-s7n0-14" value="Display Send 1 Plow Truck and 1 Sand Truck(Light)" style="rounded=1;whiteSpace=wrap;html=1;" vertex="1" parent="1">
          <mxGeometry x="715" y="225" width="110" height="50" as="geometry" />
        </mxCell>
        <mxCell id="iodD-ADhZu1srqg-s7n0-75" style="edgeStyle=orthogonalEdgeStyle;rounded=0;orthogonalLoop=1;jettySize=auto;html=1;entryX=1;entryY=0.5;entryDx=0;entryDy=0;" edge="1" parent="1" source="iodD-ADhZu1srqg-s7n0-15" target="iodD-ADhZu1srqg-s7n0-56">
          <mxGeometry relative="1" as="geometry">
            <Array as="points">
              <mxPoint x="900" y="330" />
              <mxPoint x="900" y="850" />
            </Array>
          </mxGeometry>
        </mxCell>
        <mxCell id="iodD-ADhZu1srqg-s7n0-15" value="Display Send 1 Plow Truck and 1 Salt Truck(Light)" style="rounded=1;whiteSpace=wrap;html=1;" vertex="1" parent="1">
          <mxGeometry x="680" y="305" width="115" height="50" as="geometry" />
        </mxCell>
        <mxCell id="iodD-ADhZu1srqg-s7n0-76" style="edgeStyle=orthogonalEdgeStyle;rounded=0;orthogonalLoop=1;jettySize=auto;html=1;entryX=1.033;entryY=0.613;entryDx=0;entryDy=0;entryPerimeter=0;" edge="1" parent="1" source="iodD-ADhZu1srqg-s7n0-16" target="iodD-ADhZu1srqg-s7n0-56">
          <mxGeometry relative="1" as="geometry">
            <Array as="points">
              <mxPoint x="880" y="410" />
              <mxPoint x="880" y="850" />
              <mxPoint x="384" y="850" />
            </Array>
          </mxGeometry>
        </mxCell>
        <mxCell id="iodD-ADhZu1srqg-s7n0-16" value="Display Send 1 Plow Truck" style="rounded=1;whiteSpace=wrap;html=1;" vertex="1" parent="1">
          <mxGeometry x="715" y="390" width="80" height="40" as="geometry" />
        </mxCell>
        <mxCell id="iodD-ADhZu1srqg-s7n0-27" style="edgeStyle=orthogonalEdgeStyle;rounded=0;orthogonalLoop=1;jettySize=auto;html=1;" edge="1" parent="1" source="iodD-ADhZu1srqg-s7n0-29" target="iodD-ADhZu1srqg-s7n0-35">
          <mxGeometry relative="1" as="geometry" />
        </mxCell>
        <mxCell id="iodD-ADhZu1srqg-s7n0-28" style="edgeStyle=orthogonalEdgeStyle;rounded=0;orthogonalLoop=1;jettySize=auto;html=1;entryX=0.5;entryY=0;entryDx=0;entryDy=0;" edge="1" parent="1" source="iodD-ADhZu1srqg-s7n0-29" target="iodD-ADhZu1srqg-s7n0-32">
          <mxGeometry relative="1" as="geometry">
            <Array as="points">
              <mxPoint x="320" y="350" />
              <mxPoint x="320" y="350" />
            </Array>
          </mxGeometry>
        </mxCell>
        <mxCell id="iodD-ADhZu1srqg-s7n0-29" value="Temp &amp;lt;-15.0?" style="rhombus;whiteSpace=wrap;html=1;" vertex="1" parent="1">
          <mxGeometry x="315" y="270" width="80" height="80" as="geometry" />
        </mxCell>
        <mxCell id="iodD-ADhZu1srqg-s7n0-30" style="edgeStyle=orthogonalEdgeStyle;rounded=0;orthogonalLoop=1;jettySize=auto;html=1;" edge="1" parent="1" source="iodD-ADhZu1srqg-s7n0-32" target="iodD-ADhZu1srqg-s7n0-36">
          <mxGeometry relative="1" as="geometry" />
        </mxCell>
        <mxCell id="iodD-ADhZu1srqg-s7n0-31" style="edgeStyle=orthogonalEdgeStyle;rounded=0;orthogonalLoop=1;jettySize=auto;html=1;entryX=0.5;entryY=0;entryDx=0;entryDy=0;" edge="1" parent="1" source="iodD-ADhZu1srqg-s7n0-32" target="iodD-ADhZu1srqg-s7n0-34">
          <mxGeometry relative="1" as="geometry">
            <Array as="points">
              <mxPoint x="330" y="430" />
              <mxPoint x="330" y="430" />
            </Array>
          </mxGeometry>
        </mxCell>
        <mxCell id="iodD-ADhZu1srqg-s7n0-32" value="Temp -15.0 - 7.0?" style="rhombus;whiteSpace=wrap;html=1;" vertex="1" parent="1">
          <mxGeometry x="260" y="350" width="80" height="80" as="geometry" />
        </mxCell>
        <mxCell id="iodD-ADhZu1srqg-s7n0-33" style="edgeStyle=orthogonalEdgeStyle;rounded=0;orthogonalLoop=1;jettySize=auto;html=1;" edge="1" parent="1" source="iodD-ADhZu1srqg-s7n0-34" target="iodD-ADhZu1srqg-s7n0-37">
          <mxGeometry relative="1" as="geometry" />
        </mxCell>
        <mxCell id="iodD-ADhZu1srqg-s7n0-34" value="Temp &amp;gt;- 7.0?" style="rhombus;whiteSpace=wrap;html=1;" vertex="1" parent="1">
          <mxGeometry x="310" y="430" width="80" height="80" as="geometry" />
        </mxCell>
        <mxCell id="iodD-ADhZu1srqg-s7n0-85" style="edgeStyle=orthogonalEdgeStyle;rounded=0;orthogonalLoop=1;jettySize=auto;html=1;" edge="1" parent="1" source="iodD-ADhZu1srqg-s7n0-35" target="iodD-ADhZu1srqg-s7n0-56">
          <mxGeometry relative="1" as="geometry">
            <Array as="points">
              <mxPoint x="540" y="310" />
              <mxPoint x="540" y="380" />
              <mxPoint x="600" y="380" />
              <mxPoint x="600" y="822" />
            </Array>
          </mxGeometry>
        </mxCell>
        <mxCell id="iodD-ADhZu1srqg-s7n0-35" value="Display Send 1 Plow Truck and 1 Sand Truck(Heavy)" style="rounded=1;whiteSpace=wrap;html=1;" vertex="1" parent="1">
          <mxGeometry x="415" y="285" width="110" height="50" as="geometry" />
        </mxCell>
        <mxCell id="iodD-ADhZu1srqg-s7n0-87" style="edgeStyle=orthogonalEdgeStyle;rounded=0;orthogonalLoop=1;jettySize=auto;html=1;entryX=0.917;entryY=0.15;entryDx=0;entryDy=0;entryPerimeter=0;" edge="1" parent="1" source="iodD-ADhZu1srqg-s7n0-36" target="iodD-ADhZu1srqg-s7n0-56">
          <mxGeometry relative="1" as="geometry">
            <mxPoint x="410" y="770" as="targetPoint" />
            <Array as="points">
              <mxPoint x="570" y="390" />
              <mxPoint x="570" y="822" />
              <mxPoint x="438" y="822" />
              <mxPoint x="438" y="828" />
              <mxPoint x="370" y="828" />
            </Array>
          </mxGeometry>
        </mxCell>
        <mxCell id="iodD-ADhZu1srqg-s7n0-36" value="Display Send 1 Plow Truck and 1 Salt Truck(Heavy)" style="rounded=1;whiteSpace=wrap;html=1;" vertex="1" parent="1">
          <mxGeometry x="380" y="365" width="115" height="50" as="geometry" />
        </mxCell>
        <mxCell id="iodD-ADhZu1srqg-s7n0-88" style="edgeStyle=orthogonalEdgeStyle;rounded=0;orthogonalLoop=1;jettySize=auto;html=1;entryX=1;entryY=0;entryDx=0;entryDy=0;" edge="1" parent="1" source="iodD-ADhZu1srqg-s7n0-37" target="iodD-ADhZu1srqg-s7n0-56">
          <mxGeometry relative="1" as="geometry">
            <mxPoint x="440" y="800" as="targetPoint" />
            <Array as="points">
              <mxPoint x="550" y="470" />
              <mxPoint x="550" y="825" />
              <mxPoint x="362" y="825" />
            </Array>
          </mxGeometry>
        </mxCell>
        <mxCell id="iodD-ADhZu1srqg-s7n0-37" value="Display Send 1 Plow Truck and 1 Salt Truck(Normal)" style="rounded=1;whiteSpace=wrap;html=1;" vertex="1" parent="1">
          <mxGeometry x="422.5" y="440" width="95" height="60" as="geometry" />
        </mxCell>
        <mxCell id="iodD-ADhZu1srqg-s7n0-40" style="edgeStyle=orthogonalEdgeStyle;rounded=0;orthogonalLoop=1;jettySize=auto;html=1;" edge="1" parent="1" source="iodD-ADhZu1srqg-s7n0-42" target="iodD-ADhZu1srqg-s7n0-48">
          <mxGeometry relative="1" as="geometry" />
        </mxCell>
        <mxCell id="iodD-ADhZu1srqg-s7n0-41" style="edgeStyle=orthogonalEdgeStyle;rounded=0;orthogonalLoop=1;jettySize=auto;html=1;entryX=0.5;entryY=0;entryDx=0;entryDy=0;" edge="1" parent="1" source="iodD-ADhZu1srqg-s7n0-42" target="iodD-ADhZu1srqg-s7n0-45">
          <mxGeometry relative="1" as="geometry">
            <Array as="points">
              <mxPoint x="-20" y="415" />
              <mxPoint x="-20" y="415" />
            </Array>
          </mxGeometry>
        </mxCell>
        <mxCell id="iodD-ADhZu1srqg-s7n0-42" value="Temp &amp;lt;-15.0?" style="rhombus;whiteSpace=wrap;html=1;" vertex="1" parent="1">
          <mxGeometry x="-25" y="335" width="80" height="80" as="geometry" />
        </mxCell>
        <mxCell id="iodD-ADhZu1srqg-s7n0-43" style="edgeStyle=orthogonalEdgeStyle;rounded=0;orthogonalLoop=1;jettySize=auto;html=1;" edge="1" parent="1" source="iodD-ADhZu1srqg-s7n0-45" target="iodD-ADhZu1srqg-s7n0-49">
          <mxGeometry relative="1" as="geometry" />
        </mxCell>
        <mxCell id="iodD-ADhZu1srqg-s7n0-44" style="edgeStyle=orthogonalEdgeStyle;rounded=0;orthogonalLoop=1;jettySize=auto;html=1;entryX=0.5;entryY=0;entryDx=0;entryDy=0;" edge="1" parent="1" source="iodD-ADhZu1srqg-s7n0-45" target="iodD-ADhZu1srqg-s7n0-47">
          <mxGeometry relative="1" as="geometry">
            <Array as="points">
              <mxPoint x="-10" y="495" />
              <mxPoint x="-10" y="495" />
            </Array>
          </mxGeometry>
        </mxCell>
        <mxCell id="iodD-ADhZu1srqg-s7n0-45" value="Temp -15.0 - 7.0?" style="rhombus;whiteSpace=wrap;html=1;" vertex="1" parent="1">
          <mxGeometry x="-80" y="415" width="80" height="80" as="geometry" />
        </mxCell>
        <mxCell id="iodD-ADhZu1srqg-s7n0-46" style="edgeStyle=orthogonalEdgeStyle;rounded=0;orthogonalLoop=1;jettySize=auto;html=1;" edge="1" parent="1" source="iodD-ADhZu1srqg-s7n0-47" target="iodD-ADhZu1srqg-s7n0-50">
          <mxGeometry relative="1" as="geometry" />
        </mxCell>
        <mxCell id="iodD-ADhZu1srqg-s7n0-47" value="Temp &amp;gt;- 7.0?" style="rhombus;whiteSpace=wrap;html=1;" vertex="1" parent="1">
          <mxGeometry x="-30" y="495" width="80" height="80" as="geometry" />
        </mxCell>
        <mxCell id="iodD-ADhZu1srqg-s7n0-99" style="edgeStyle=orthogonalEdgeStyle;rounded=0;orthogonalLoop=1;jettySize=auto;html=1;entryX=0;entryY=0.5;entryDx=0;entryDy=0;" edge="1" parent="1" source="iodD-ADhZu1srqg-s7n0-48" target="iodD-ADhZu1srqg-s7n0-56">
          <mxGeometry relative="1" as="geometry" />
        </mxCell>
        <mxCell id="iodD-ADhZu1srqg-s7n0-48" value="Display Send 2 Plow Truck and 1 Sand Truck(Heavy)" style="rounded=1;whiteSpace=wrap;html=1;" vertex="1" parent="1">
          <mxGeometry x="75" y="350" width="110" height="50" as="geometry" />
        </mxCell>
        <mxCell id="iodD-ADhZu1srqg-s7n0-100" style="edgeStyle=orthogonalEdgeStyle;rounded=0;orthogonalLoop=1;jettySize=auto;html=1;entryX=0;entryY=0.5;entryDx=0;entryDy=0;" edge="1" parent="1" source="iodD-ADhZu1srqg-s7n0-49" target="iodD-ADhZu1srqg-s7n0-56">
          <mxGeometry relative="1" as="geometry" />
        </mxCell>
        <mxCell id="iodD-ADhZu1srqg-s7n0-49" value="Display Send 2 Plow Truck and 1 Salt Truck(Heavy)" style="rounded=1;whiteSpace=wrap;html=1;" vertex="1" parent="1">
          <mxGeometry x="40" y="430" width="115" height="50" as="geometry" />
        </mxCell>
        <mxCell id="iodD-ADhZu1srqg-s7n0-101" style="edgeStyle=orthogonalEdgeStyle;rounded=0;orthogonalLoop=1;jettySize=auto;html=1;entryX=0;entryY=0.5;entryDx=0;entryDy=0;" edge="1" parent="1" source="iodD-ADhZu1srqg-s7n0-50" target="iodD-ADhZu1srqg-s7n0-56">
          <mxGeometry relative="1" as="geometry">
            <Array as="points">
              <mxPoint x="190" y="535" />
              <mxPoint x="190" y="850" />
            </Array>
          </mxGeometry>
        </mxCell>
        <mxCell id="iodD-ADhZu1srqg-s7n0-50" value="Display Send 2 Plow Truck and 1 Salt Truck(Light)" style="rounded=1;whiteSpace=wrap;html=1;arcSize=30;" vertex="1" parent="1">
          <mxGeometry x="82.5" y="505" width="95" height="60" as="geometry" />
        </mxCell>
        <mxCell id="iodD-ADhZu1srqg-s7n0-57" style="edgeStyle=orthogonalEdgeStyle;rounded=0;orthogonalLoop=1;jettySize=auto;html=1;" edge="1" parent="1" source="iodD-ADhZu1srqg-s7n0-54" target="iodD-ADhZu1srqg-s7n0-56">
          <mxGeometry relative="1" as="geometry" />
        </mxCell>
        <mxCell id="iodD-ADhZu1srqg-s7n0-54" value="Display State of Emergency (Organize Army and Other Jurisdiction Support)" style="rounded=1;whiteSpace=wrap;html=1;" vertex="1" parent="1">
          <mxGeometry x="350" y="630" width="120" height="60" as="geometry" />
        </mxCell>
        <mxCell id="iodD-ADhZu1srqg-s7n0-56" value="Exit" style="ellipse;whiteSpace=wrap;html=1;" vertex="1" parent="1">
          <mxGeometry x="260" y="810" width="120" height="80" as="geometry" />
        </mxCell>
        <mxCell id="iodD-ADhZu1srqg-s7n0-63" value="Yes" style="text;html=1;align=center;verticalAlign=middle;resizable=0;points=[];autosize=1;strokeColor=none;fillColor=none;" vertex="1" parent="1">
          <mxGeometry x="640" y="110" width="40" height="30" as="geometry" />
        </mxCell>
        <mxCell id="iodD-ADhZu1srqg-s7n0-64" value="Yes" style="text;html=1;align=center;verticalAlign=middle;resizable=0;points=[];autosize=1;strokeColor=none;fillColor=none;" vertex="1" parent="1">
          <mxGeometry x="760" y="158" width="40" height="30" as="geometry" />
        </mxCell>
        <mxCell id="iodD-ADhZu1srqg-s7n0-65" value="No" style="text;html=1;align=center;verticalAlign=middle;resizable=0;points=[];autosize=1;strokeColor=none;fillColor=none;" vertex="1" parent="1">
          <mxGeometry x="650" y="158" width="40" height="30" as="geometry" />
        </mxCell>
        <mxCell id="iodD-ADhZu1srqg-s7n0-67" value="Yes" style="text;html=1;align=center;verticalAlign=middle;resizable=0;points=[];autosize=1;strokeColor=none;fillColor=none;" vertex="1" parent="1">
          <mxGeometry x="600" y="195" width="40" height="30" as="geometry" />
        </mxCell>
        <mxCell id="iodD-ADhZu1srqg-s7n0-68" value="Yes" style="text;html=1;align=center;verticalAlign=middle;resizable=0;points=[];autosize=1;strokeColor=none;fillColor=none;" vertex="1" parent="1">
          <mxGeometry x="680" y="218" width="40" height="30" as="geometry" />
        </mxCell>
        <mxCell id="iodD-ADhZu1srqg-s7n0-69" value="No" style="text;html=1;align=center;verticalAlign=middle;resizable=0;points=[];autosize=1;strokeColor=none;fillColor=none;" vertex="1" parent="1">
          <mxGeometry x="600" y="268" width="40" height="30" as="geometry" />
        </mxCell>
        <mxCell id="iodD-ADhZu1srqg-s7n0-70" value="Yes" style="text;html=1;align=center;verticalAlign=middle;resizable=0;points=[];autosize=1;strokeColor=none;fillColor=none;" vertex="1" parent="1">
          <mxGeometry x="640" y="305" width="40" height="30" as="geometry" />
        </mxCell>
        <mxCell id="iodD-ADhZu1srqg-s7n0-72" value="No" style="text;html=1;align=center;verticalAlign=middle;resizable=0;points=[];autosize=1;strokeColor=none;fillColor=none;" vertex="1" parent="1">
          <mxGeometry x="600" y="365" width="40" height="30" as="geometry" />
        </mxCell>
        <mxCell id="iodD-ADhZu1srqg-s7n0-73" value="Yes" style="text;html=1;align=center;verticalAlign=middle;resizable=0;points=[];autosize=1;strokeColor=none;fillColor=none;" vertex="1" parent="1">
          <mxGeometry x="680" y="385" width="40" height="30" as="geometry" />
        </mxCell>
        <mxCell id="iodD-ADhZu1srqg-s7n0-78" value="No" style="text;html=1;align=center;verticalAlign=middle;resizable=0;points=[];autosize=1;strokeColor=none;fillColor=none;" vertex="1" parent="1">
          <mxGeometry x="425" y="180" width="40" height="30" as="geometry" />
        </mxCell>
        <mxCell id="iodD-ADhZu1srqg-s7n0-79" value="Yes" style="text;html=1;align=center;verticalAlign=middle;resizable=0;points=[];autosize=1;strokeColor=none;fillColor=none;" vertex="1" parent="1">
          <mxGeometry x="350" y="245" width="40" height="30" as="geometry" />
        </mxCell>
        <mxCell id="iodD-ADhZu1srqg-s7n0-80" value="Yes" style="text;html=1;align=center;verticalAlign=middle;resizable=0;points=[];autosize=1;strokeColor=none;fillColor=none;" vertex="1" parent="1">
          <mxGeometry x="380" y="278" width="40" height="30" as="geometry" />
        </mxCell>
        <mxCell id="iodD-ADhZu1srqg-s7n0-81" value="No" style="text;html=1;align=center;verticalAlign=middle;resizable=0;points=[];autosize=1;strokeColor=none;fillColor=none;" vertex="1" parent="1">
          <mxGeometry x="310" y="350" width="40" height="30" as="geometry" />
        </mxCell>
        <mxCell id="iodD-ADhZu1srqg-s7n0-82" value="Yes" style="text;html=1;align=center;verticalAlign=middle;resizable=0;points=[];autosize=1;strokeColor=none;fillColor=none;" vertex="1" parent="1">
          <mxGeometry x="335" y="385" width="40" height="30" as="geometry" />
        </mxCell>
        <mxCell id="iodD-ADhZu1srqg-s7n0-83" value="No" style="text;html=1;align=center;verticalAlign=middle;resizable=0;points=[];autosize=1;strokeColor=none;fillColor=none;" vertex="1" parent="1">
          <mxGeometry x="300" y="428" width="40" height="30" as="geometry" />
        </mxCell>
        <mxCell id="iodD-ADhZu1srqg-s7n0-84" value="Yes" style="text;html=1;align=center;verticalAlign=middle;resizable=0;points=[];autosize=1;strokeColor=none;fillColor=none;" vertex="1" parent="1">
          <mxGeometry x="382.5" y="450" width="40" height="30" as="geometry" />
        </mxCell>
        <mxCell id="iodD-ADhZu1srqg-s7n0-89" value="Yes" style="text;html=1;align=center;verticalAlign=middle;resizable=0;points=[];autosize=1;strokeColor=none;fillColor=none;" vertex="1" parent="1">
          <mxGeometry x="355" y="600" width="40" height="30" as="geometry" />
        </mxCell>
        <mxCell id="iodD-ADhZu1srqg-s7n0-90" value="No" style="text;html=1;align=center;verticalAlign=middle;resizable=0;points=[];autosize=1;strokeColor=none;fillColor=none;" vertex="1" parent="1">
          <mxGeometry x="230" y="178" width="40" height="30" as="geometry" />
        </mxCell>
        <mxCell id="iodD-ADhZu1srqg-s7n0-91" value="No" style="text;html=1;align=center;verticalAlign=middle;resizable=0;points=[];autosize=1;strokeColor=none;fillColor=none;" vertex="1" parent="1">
          <mxGeometry x="240" y="260" width="40" height="30" as="geometry" />
        </mxCell>
        <mxCell id="iodD-ADhZu1srqg-s7n0-92" value="Yes" style="text;html=1;align=center;verticalAlign=middle;resizable=0;points=[];autosize=1;strokeColor=none;fillColor=none;" vertex="1" parent="1">
          <mxGeometry x="77.5" y="285" width="40" height="30" as="geometry" />
        </mxCell>
        <mxCell id="iodD-ADhZu1srqg-s7n0-93" value="Yes" style="text;html=1;align=center;verticalAlign=middle;resizable=0;points=[];autosize=1;strokeColor=none;fillColor=none;" vertex="1" parent="1">
          <mxGeometry x="40" y="348" width="40" height="30" as="geometry" />
        </mxCell>
        <mxCell id="iodD-ADhZu1srqg-s7n0-94" value="No" style="text;html=1;align=center;verticalAlign=middle;resizable=0;points=[];autosize=1;strokeColor=none;fillColor=none;" vertex="1" parent="1">
          <mxGeometry x="-40" y="390" width="40" height="30" as="geometry" />
        </mxCell>
        <mxCell id="iodD-ADhZu1srqg-s7n0-95" value="Yes" style="text;html=1;align=center;verticalAlign=middle;resizable=0;points=[];autosize=1;strokeColor=none;fillColor=none;" vertex="1" parent="1">
          <mxGeometry x="-5" y="430" width="40" height="30" as="geometry" />
        </mxCell>
        <mxCell id="iodD-ADhZu1srqg-s7n0-96" value="No" style="text;html=1;align=center;verticalAlign=middle;resizable=0;points=[];autosize=1;strokeColor=none;fillColor=none;" vertex="1" parent="1">
          <mxGeometry x="-40" y="488" width="40" height="30" as="geometry" />
        </mxCell>
        <mxCell id="iodD-ADhZu1srqg-s7n0-97" value="Yes" style="text;html=1;align=center;verticalAlign=middle;resizable=0;points=[];autosize=1;strokeColor=none;fillColor=none;" vertex="1" parent="1">
          <mxGeometry x="42.5" y="510" width="40" height="30" as="geometry" />
        </mxCell>
        <mxCell id="iodD-ADhZu1srqg-s7n0-102" value="No" style="text;html=1;align=center;verticalAlign=middle;resizable=0;points=[];autosize=1;strokeColor=none;fillColor=none;" vertex="1" parent="1">
          <mxGeometry x="690" y="40" width="40" height="30" as="geometry" />
        </mxCell>
        <mxCell id="iodD-ADhZu1srqg-s7n0-199" style="edgeStyle=orthogonalEdgeStyle;rounded=0;orthogonalLoop=1;jettySize=auto;html=1;entryX=0;entryY=0.5;entryDx=0;entryDy=0;" edge="1" parent="1" source="iodD-ADhZu1srqg-s7n0-103" target="iodD-ADhZu1srqg-s7n0-105">
          <mxGeometry relative="1" as="geometry">
            <Array as="points">
              <mxPoint x="1010" y="143" />
            </Array>
          </mxGeometry>
        </mxCell>
        <mxCell id="iodD-ADhZu1srqg-s7n0-200" style="edgeStyle=orthogonalEdgeStyle;rounded=0;orthogonalLoop=1;jettySize=auto;html=1;entryX=0;entryY=0.5;entryDx=0;entryDy=0;" edge="1" parent="1" source="iodD-ADhZu1srqg-s7n0-103" target="iodD-ADhZu1srqg-s7n0-202">
          <mxGeometry relative="1" as="geometry">
            <mxPoint x="1530" y="60" as="targetPoint" />
          </mxGeometry>
        </mxCell>
        <mxCell id="iodD-ADhZu1srqg-s7n0-103" value="Is Weather Ice?" style="rhombus;whiteSpace=wrap;html=1;" vertex="1" parent="1">
          <mxGeometry x="960" y="30.5" width="100" height="100" as="geometry" />
        </mxCell>
        <mxCell id="iodD-ADhZu1srqg-s7n0-109" style="edgeStyle=orthogonalEdgeStyle;rounded=0;orthogonalLoop=1;jettySize=auto;html=1;entryX=0.5;entryY=0;entryDx=0;entryDy=0;" edge="1" parent="1" source="iodD-ADhZu1srqg-s7n0-105" target="iodD-ADhZu1srqg-s7n0-107">
          <mxGeometry relative="1" as="geometry">
            <Array as="points">
              <mxPoint x="1210" y="182.5" />
              <mxPoint x="1035" y="182.5" />
            </Array>
          </mxGeometry>
        </mxCell>
        <mxCell id="iodD-ADhZu1srqg-s7n0-105" value="Identify Ice accumulation (in mms)" style="rounded=1;whiteSpace=wrap;html=1;" vertex="1" parent="1">
          <mxGeometry x="1150" y="117.5" width="120" height="50" as="geometry" />
        </mxCell>
        <mxCell id="iodD-ADhZu1srqg-s7n0-112" style="edgeStyle=orthogonalEdgeStyle;rounded=0;orthogonalLoop=1;jettySize=auto;html=1;" edge="1" parent="1" source="iodD-ADhZu1srqg-s7n0-107" target="iodD-ADhZu1srqg-s7n0-108">
          <mxGeometry relative="1" as="geometry" />
        </mxCell>
        <mxCell id="iodD-ADhZu1srqg-s7n0-117" style="edgeStyle=orthogonalEdgeStyle;rounded=0;orthogonalLoop=1;jettySize=auto;html=1;" edge="1" parent="1" source="iodD-ADhZu1srqg-s7n0-107" target="iodD-ADhZu1srqg-s7n0-116">
          <mxGeometry relative="1" as="geometry" />
        </mxCell>
        <mxCell id="iodD-ADhZu1srqg-s7n0-107" value="&amp;lt;=3 mm" style="rhombus;whiteSpace=wrap;html=1;" vertex="1" parent="1">
          <mxGeometry x="1000" y="212.5" width="70" height="60" as="geometry" />
        </mxCell>
        <mxCell id="iodD-ADhZu1srqg-s7n0-114" style="edgeStyle=orthogonalEdgeStyle;rounded=0;orthogonalLoop=1;jettySize=auto;html=1;entryX=0;entryY=0.5;entryDx=0;entryDy=0;" edge="1" parent="1" source="iodD-ADhZu1srqg-s7n0-108" target="iodD-ADhZu1srqg-s7n0-110">
          <mxGeometry relative="1" as="geometry" />
        </mxCell>
        <mxCell id="iodD-ADhZu1srqg-s7n0-170" style="edgeStyle=orthogonalEdgeStyle;rounded=0;orthogonalLoop=1;jettySize=auto;html=1;entryX=0.5;entryY=0;entryDx=0;entryDy=0;" edge="1" parent="1" source="iodD-ADhZu1srqg-s7n0-108" target="iodD-ADhZu1srqg-s7n0-158">
          <mxGeometry relative="1" as="geometry">
            <Array as="points">
              <mxPoint x="1160" y="412.5" />
            </Array>
          </mxGeometry>
        </mxCell>
        <mxCell id="iodD-ADhZu1srqg-s7n0-108" value="3.0 to 5.0mm" style="rhombus;whiteSpace=wrap;html=1;" vertex="1" parent="1">
          <mxGeometry x="1110" y="197.5" width="100" height="90" as="geometry" />
        </mxCell>
        <mxCell id="iodD-ADhZu1srqg-s7n0-115" style="edgeStyle=orthogonalEdgeStyle;rounded=0;orthogonalLoop=1;jettySize=auto;html=1;entryX=0;entryY=0.5;entryDx=0;entryDy=0;" edge="1" parent="1" source="iodD-ADhZu1srqg-s7n0-110" target="iodD-ADhZu1srqg-s7n0-111">
          <mxGeometry relative="1" as="geometry" />
        </mxCell>
        <mxCell id="iodD-ADhZu1srqg-s7n0-178" style="edgeStyle=orthogonalEdgeStyle;rounded=0;orthogonalLoop=1;jettySize=auto;html=1;entryX=0.5;entryY=0;entryDx=0;entryDy=0;" edge="1" parent="1" source="iodD-ADhZu1srqg-s7n0-110" target="iodD-ADhZu1srqg-s7n0-165">
          <mxGeometry relative="1" as="geometry" />
        </mxCell>
        <mxCell id="iodD-ADhZu1srqg-s7n0-110" value="&amp;gt;5.5-17.0mm" style="rhombus;whiteSpace=wrap;html=1;" vertex="1" parent="1">
          <mxGeometry x="1250" y="200" width="90" height="85" as="geometry" />
        </mxCell>
        <mxCell id="iodD-ADhZu1srqg-s7n0-180" style="edgeStyle=orthogonalEdgeStyle;rounded=0;orthogonalLoop=1;jettySize=auto;html=1;entryX=0.5;entryY=0;entryDx=0;entryDy=0;" edge="1" parent="1" source="iodD-ADhZu1srqg-s7n0-111" target="iodD-ADhZu1srqg-s7n0-179">
          <mxGeometry relative="1" as="geometry">
            <Array as="points">
              <mxPoint x="1510" y="242.5" />
            </Array>
          </mxGeometry>
        </mxCell>
        <mxCell id="iodD-ADhZu1srqg-s7n0-111" value="&amp;gt;17.0mm" style="rhombus;whiteSpace=wrap;html=1;" vertex="1" parent="1">
          <mxGeometry x="1390" y="200" width="90" height="85" as="geometry" />
        </mxCell>
        <mxCell id="iodD-ADhZu1srqg-s7n0-204" style="edgeStyle=orthogonalEdgeStyle;rounded=0;orthogonalLoop=1;jettySize=auto;html=1;entryX=1;entryY=0.5;entryDx=0;entryDy=0;" edge="1" parent="1" source="iodD-ADhZu1srqg-s7n0-116" target="iodD-ADhZu1srqg-s7n0-56">
          <mxGeometry relative="1" as="geometry">
            <Array as="points">
              <mxPoint x="950" y="337" />
              <mxPoint x="950" y="850" />
            </Array>
          </mxGeometry>
        </mxCell>
        <mxCell id="iodD-ADhZu1srqg-s7n0-116" value="NO Action Required" style="rounded=1;whiteSpace=wrap;html=1;" vertex="1" parent="1">
          <mxGeometry x="995" y="312.5" width="80" height="50" as="geometry" />
        </mxCell>
        <mxCell id="iodD-ADhZu1srqg-s7n0-205" style="edgeStyle=orthogonalEdgeStyle;rounded=0;orthogonalLoop=1;jettySize=auto;html=1;entryX=1;entryY=0.5;entryDx=0;entryDy=0;" edge="1" parent="1" source="iodD-ADhZu1srqg-s7n0-147" target="iodD-ADhZu1srqg-s7n0-56">
          <mxGeometry relative="1" as="geometry">
            <Array as="points">
              <mxPoint x="950" y="497" />
              <mxPoint x="950" y="850" />
            </Array>
          </mxGeometry>
        </mxCell>
        <mxCell id="iodD-ADhZu1srqg-s7n0-147" value="1 sand truck needed&amp;nbsp;" style="rounded=0;whiteSpace=wrap;html=1;" vertex="1" parent="1">
          <mxGeometry x="970" y="477.5" width="80" height="40" as="geometry" />
        </mxCell>
        <mxCell id="iodD-ADhZu1srqg-s7n0-206" style="edgeStyle=orthogonalEdgeStyle;rounded=0;orthogonalLoop=1;jettySize=auto;html=1;entryX=1;entryY=0.5;entryDx=0;entryDy=0;" edge="1" parent="1" source="iodD-ADhZu1srqg-s7n0-148" target="iodD-ADhZu1srqg-s7n0-56">
          <mxGeometry relative="1" as="geometry">
            <Array as="points">
              <mxPoint x="980" y="850" />
            </Array>
          </mxGeometry>
        </mxCell>
        <mxCell id="iodD-ADhZu1srqg-s7n0-148" value="1 salt truck" style="rounded=0;whiteSpace=wrap;html=1;" vertex="1" parent="1">
          <mxGeometry x="970" y="542.5" width="90" height="30" as="geometry" />
        </mxCell>
        <mxCell id="iodD-ADhZu1srqg-s7n0-207" style="edgeStyle=orthogonalEdgeStyle;rounded=0;orthogonalLoop=1;jettySize=auto;html=1;entryX=1;entryY=0.5;entryDx=0;entryDy=0;" edge="1" parent="1" source="iodD-ADhZu1srqg-s7n0-149" target="iodD-ADhZu1srqg-s7n0-56">
          <mxGeometry relative="1" as="geometry">
            <Array as="points">
              <mxPoint x="1010" y="618" />
              <mxPoint x="1010" y="850" />
            </Array>
          </mxGeometry>
        </mxCell>
        <mxCell id="iodD-ADhZu1srqg-s7n0-149" value="No action needed" style="rounded=0;whiteSpace=wrap;html=1;" vertex="1" parent="1">
          <mxGeometry x="1105" y="602.5" width="80" height="30" as="geometry" />
        </mxCell>
        <mxCell id="iodD-ADhZu1srqg-s7n0-213" style="edgeStyle=orthogonalEdgeStyle;rounded=0;orthogonalLoop=1;jettySize=auto;html=1;entryX=1;entryY=0.5;entryDx=0;entryDy=0;" edge="1" parent="1" source="iodD-ADhZu1srqg-s7n0-152" target="iodD-ADhZu1srqg-s7n0-56">
          <mxGeometry relative="1" as="geometry">
            <Array as="points">
              <mxPoint x="1440" y="347" />
              <mxPoint x="1440" y="850" />
            </Array>
          </mxGeometry>
        </mxCell>
        <mxCell id="iodD-ADhZu1srqg-s7n0-152" value="2 Heavy sand trucks" style="rounded=0;whiteSpace=wrap;html=1;" vertex="1" parent="1">
          <mxGeometry x="1320" y="326.5" width="80" height="40" as="geometry" />
        </mxCell>
        <mxCell id="iodD-ADhZu1srqg-s7n0-214" style="edgeStyle=orthogonalEdgeStyle;rounded=0;orthogonalLoop=1;jettySize=auto;html=1;entryX=1;entryY=0.5;entryDx=0;entryDy=0;" edge="1" parent="1" source="iodD-ADhZu1srqg-s7n0-154" target="iodD-ADhZu1srqg-s7n0-56">
          <mxGeometry relative="1" as="geometry">
            <Array as="points">
              <mxPoint x="1430" y="515" />
              <mxPoint x="1430" y="850" />
            </Array>
          </mxGeometry>
        </mxCell>
        <mxCell id="iodD-ADhZu1srqg-s7n0-154" value="2 heavy salt trucks" style="rounded=0;whiteSpace=wrap;html=1;" vertex="1" parent="1">
          <mxGeometry x="1350" y="495" width="65" height="40" as="geometry" />
        </mxCell>
        <mxCell id="iodD-ADhZu1srqg-s7n0-215" style="edgeStyle=orthogonalEdgeStyle;rounded=0;orthogonalLoop=1;jettySize=auto;html=1;entryX=1;entryY=0.5;entryDx=0;entryDy=0;" edge="1" parent="1" source="iodD-ADhZu1srqg-s7n0-155" target="iodD-ADhZu1srqg-s7n0-56">
          <mxGeometry relative="1" as="geometry">
            <Array as="points">
              <mxPoint x="1325" y="850" />
            </Array>
          </mxGeometry>
        </mxCell>
        <mxCell id="iodD-ADhZu1srqg-s7n0-155" value="1 heavy salt truck" style="rounded=0;whiteSpace=wrap;html=1;" vertex="1" parent="1">
          <mxGeometry x="1290" y="597.5" width="70" height="40" as="geometry" />
        </mxCell>
        <mxCell id="iodD-ADhZu1srqg-s7n0-157" style="edgeStyle=orthogonalEdgeStyle;rounded=0;orthogonalLoop=1;jettySize=auto;html=1;" edge="1" parent="1" source="iodD-ADhZu1srqg-s7n0-158">
          <mxGeometry relative="1" as="geometry">
            <mxPoint x="1050" y="502.5" as="targetPoint" />
            <Array as="points">
              <mxPoint x="1075" y="502.5" />
            </Array>
          </mxGeometry>
        </mxCell>
        <mxCell id="iodD-ADhZu1srqg-s7n0-171" style="edgeStyle=orthogonalEdgeStyle;rounded=0;orthogonalLoop=1;jettySize=auto;html=1;entryX=0.5;entryY=0;entryDx=0;entryDy=0;" edge="1" parent="1" source="iodD-ADhZu1srqg-s7n0-158" target="iodD-ADhZu1srqg-s7n0-161">
          <mxGeometry relative="1" as="geometry">
            <Array as="points">
              <mxPoint x="1130" y="442.5" />
              <mxPoint x="1130" y="470.5" />
              <mxPoint x="1128" y="470.5" />
            </Array>
          </mxGeometry>
        </mxCell>
        <mxCell id="iodD-ADhZu1srqg-s7n0-158" value="&amp;lt;15.0" style="rhombus;whiteSpace=wrap;html=1;" vertex="1" parent="1">
          <mxGeometry x="1045" y="412.5" width="60" height="60" as="geometry" />
        </mxCell>
        <mxCell id="iodD-ADhZu1srqg-s7n0-159" style="edgeStyle=orthogonalEdgeStyle;rounded=0;orthogonalLoop=1;jettySize=auto;html=1;exitX=0.5;exitY=1;exitDx=0;exitDy=0;" edge="1" parent="1" source="iodD-ADhZu1srqg-s7n0-158" target="iodD-ADhZu1srqg-s7n0-158">
          <mxGeometry relative="1" as="geometry" />
        </mxCell>
        <mxCell id="iodD-ADhZu1srqg-s7n0-160" style="edgeStyle=orthogonalEdgeStyle;rounded=0;orthogonalLoop=1;jettySize=auto;html=1;" edge="1" parent="1" source="iodD-ADhZu1srqg-s7n0-161" target="iodD-ADhZu1srqg-s7n0-148">
          <mxGeometry relative="1" as="geometry" />
        </mxCell>
        <mxCell id="iodD-ADhZu1srqg-s7n0-173" style="edgeStyle=orthogonalEdgeStyle;rounded=0;orthogonalLoop=1;jettySize=auto;html=1;exitX=1;exitY=0.5;exitDx=0;exitDy=0;entryX=0;entryY=0.5;entryDx=0;entryDy=0;" edge="1" parent="1" source="iodD-ADhZu1srqg-s7n0-161" target="iodD-ADhZu1srqg-s7n0-163">
          <mxGeometry relative="1" as="geometry" />
        </mxCell>
        <mxCell id="iodD-ADhZu1srqg-s7n0-161" value="-15.0 to-7.0" style="rhombus;whiteSpace=wrap;html=1;" vertex="1" parent="1">
          <mxGeometry x="1090" y="490" width="75" height="75" as="geometry" />
        </mxCell>
        <mxCell id="iodD-ADhZu1srqg-s7n0-162" style="edgeStyle=orthogonalEdgeStyle;rounded=0;orthogonalLoop=1;jettySize=auto;html=1;entryX=0.5;entryY=0;entryDx=0;entryDy=0;" edge="1" parent="1" source="iodD-ADhZu1srqg-s7n0-163" target="iodD-ADhZu1srqg-s7n0-149">
          <mxGeometry relative="1" as="geometry" />
        </mxCell>
        <mxCell id="iodD-ADhZu1srqg-s7n0-163" value="&amp;gt;-7.0" style="rhombus;whiteSpace=wrap;html=1;" vertex="1" parent="1">
          <mxGeometry x="1185" y="503.5" width="50" height="48" as="geometry" />
        </mxCell>
        <mxCell id="iodD-ADhZu1srqg-s7n0-164" value="" style="edgeStyle=orthogonalEdgeStyle;rounded=0;orthogonalLoop=1;jettySize=auto;html=1;" edge="1" parent="1" source="iodD-ADhZu1srqg-s7n0-165" target="iodD-ADhZu1srqg-s7n0-152">
          <mxGeometry relative="1" as="geometry" />
        </mxCell>
        <mxCell id="iodD-ADhZu1srqg-s7n0-176" style="edgeStyle=orthogonalEdgeStyle;rounded=0;orthogonalLoop=1;jettySize=auto;html=1;entryX=0.5;entryY=0;entryDx=0;entryDy=0;" edge="1" parent="1" source="iodD-ADhZu1srqg-s7n0-165" target="iodD-ADhZu1srqg-s7n0-167">
          <mxGeometry relative="1" as="geometry" />
        </mxCell>
        <mxCell id="iodD-ADhZu1srqg-s7n0-165" value="&amp;lt;15.0" style="rhombus;whiteSpace=wrap;html=1;" vertex="1" parent="1">
          <mxGeometry x="1210" y="320.5" width="60" height="52" as="geometry" />
        </mxCell>
        <mxCell id="iodD-ADhZu1srqg-s7n0-177" style="edgeStyle=orthogonalEdgeStyle;rounded=0;orthogonalLoop=1;jettySize=auto;html=1;entryX=0.5;entryY=0;entryDx=0;entryDy=0;" edge="1" parent="1" source="iodD-ADhZu1srqg-s7n0-167" target="iodD-ADhZu1srqg-s7n0-169">
          <mxGeometry relative="1" as="geometry" />
        </mxCell>
        <mxCell id="iodD-ADhZu1srqg-s7n0-212" style="edgeStyle=orthogonalEdgeStyle;rounded=0;orthogonalLoop=1;jettySize=auto;html=1;exitX=1;exitY=0.5;exitDx=0;exitDy=0;entryX=0.5;entryY=0;entryDx=0;entryDy=0;" edge="1" parent="1" source="iodD-ADhZu1srqg-s7n0-167" target="iodD-ADhZu1srqg-s7n0-154">
          <mxGeometry relative="1" as="geometry" />
        </mxCell>
        <mxCell id="iodD-ADhZu1srqg-s7n0-167" value="--15.0 to-7.0" style="rhombus;whiteSpace=wrap;html=1;" vertex="1" parent="1">
          <mxGeometry x="1230" y="407.5" width="60" height="60" as="geometry" />
        </mxCell>
        <mxCell id="iodD-ADhZu1srqg-s7n0-209" style="edgeStyle=orthogonalEdgeStyle;rounded=0;orthogonalLoop=1;jettySize=auto;html=1;entryX=0.5;entryY=0;entryDx=0;entryDy=0;" edge="1" parent="1" source="iodD-ADhZu1srqg-s7n0-169" target="iodD-ADhZu1srqg-s7n0-155">
          <mxGeometry relative="1" as="geometry" />
        </mxCell>
        <mxCell id="iodD-ADhZu1srqg-s7n0-169" value="&amp;gt;-7.0" style="rhombus;whiteSpace=wrap;html=1;" vertex="1" parent="1">
          <mxGeometry x="1280" y="490" width="40" height="40" as="geometry" />
        </mxCell>
        <mxCell id="iodD-ADhZu1srqg-s7n0-208" style="edgeStyle=orthogonalEdgeStyle;rounded=0;orthogonalLoop=1;jettySize=auto;html=1;entryX=1;entryY=0.5;entryDx=0;entryDy=0;" edge="1" parent="1" source="iodD-ADhZu1srqg-s7n0-179" target="iodD-ADhZu1srqg-s7n0-56">
          <mxGeometry relative="1" as="geometry">
            <Array as="points">
              <mxPoint x="1680" y="351" />
              <mxPoint x="1680" y="850" />
            </Array>
          </mxGeometry>
        </mxCell>
        <mxCell id="iodD-ADhZu1srqg-s7n0-179" value="Display State of Emergency (Organize Army and Other Jurisdiction Support)" style="rounded=1;whiteSpace=wrap;html=1;" vertex="1" parent="1">
          <mxGeometry x="1450" y="320.5" width="120" height="60" as="geometry" />
        </mxCell>
        <mxCell id="iodD-ADhZu1srqg-s7n0-181" value="Yes" style="text;html=1;align=center;verticalAlign=middle;resizable=0;points=[];autosize=1;strokeColor=none;fillColor=none;" vertex="1" parent="1">
          <mxGeometry x="1080" y="120.5" width="40" height="30" as="geometry" />
        </mxCell>
        <mxCell id="iodD-ADhZu1srqg-s7n0-182" value="No" style="text;html=1;align=center;verticalAlign=middle;resizable=0;points=[];autosize=1;strokeColor=none;fillColor=none;" vertex="1" parent="1">
          <mxGeometry x="1070" y="212.5" width="40" height="30" as="geometry" />
        </mxCell>
        <mxCell id="iodD-ADhZu1srqg-s7n0-183" value="Yes" style="text;html=1;align=center;verticalAlign=middle;resizable=0;points=[];autosize=1;strokeColor=none;fillColor=none;" vertex="1" parent="1">
          <mxGeometry x="1030" y="270.5" width="40" height="30" as="geometry" />
        </mxCell>
        <mxCell id="iodD-ADhZu1srqg-s7n0-184" value="Yes" style="text;html=1;align=center;verticalAlign=middle;resizable=0;points=[];autosize=1;strokeColor=none;fillColor=none;" vertex="1" parent="1">
          <mxGeometry x="1130" y="290.5" width="40" height="30" as="geometry" />
        </mxCell>
        <mxCell id="iodD-ADhZu1srqg-s7n0-185" value="No" style="text;html=1;align=center;verticalAlign=middle;resizable=0;points=[];autosize=1;strokeColor=none;fillColor=none;" vertex="1" parent="1">
          <mxGeometry x="1120" y="440.5" width="40" height="30" as="geometry" />
        </mxCell>
        <mxCell id="iodD-ADhZu1srqg-s7n0-186" value="No" style="text;html=1;align=center;verticalAlign=middle;resizable=0;points=[];autosize=1;strokeColor=none;fillColor=none;" vertex="1" parent="1">
          <mxGeometry x="1150" y="503.5" width="40" height="30" as="geometry" />
        </mxCell>
        <mxCell id="iodD-ADhZu1srqg-s7n0-187" value="Yes" style="text;html=1;align=center;verticalAlign=middle;resizable=0;points=[];autosize=1;strokeColor=none;fillColor=none;" vertex="1" parent="1">
          <mxGeometry x="1070" y="470.5" width="40" height="30" as="geometry" />
        </mxCell>
        <mxCell id="iodD-ADhZu1srqg-s7n0-188" value="Yes" style="text;html=1;align=center;verticalAlign=middle;resizable=0;points=[];autosize=1;strokeColor=none;fillColor=none;" vertex="1" parent="1">
          <mxGeometry x="1060" y="530.5" width="40" height="30" as="geometry" />
        </mxCell>
        <mxCell id="iodD-ADhZu1srqg-s7n0-189" value="Yes" style="text;html=1;align=center;verticalAlign=middle;resizable=0;points=[];autosize=1;strokeColor=none;fillColor=none;" vertex="1" parent="1">
          <mxGeometry x="1150" y="550.5" width="40" height="30" as="geometry" />
        </mxCell>
        <mxCell id="iodD-ADhZu1srqg-s7n0-190" value="No" style="text;html=1;align=center;verticalAlign=middle;resizable=0;points=[];autosize=1;strokeColor=none;fillColor=none;" vertex="1" parent="1">
          <mxGeometry x="1210" y="222.5" width="40" height="30" as="geometry" />
        </mxCell>
        <mxCell id="iodD-ADhZu1srqg-s7n0-191" value="No" style="text;html=1;align=center;verticalAlign=middle;resizable=0;points=[];autosize=1;strokeColor=none;fillColor=none;" vertex="1" parent="1">
          <mxGeometry x="1340" y="222.5" width="40" height="30" as="geometry" />
        </mxCell>
        <mxCell id="iodD-ADhZu1srqg-s7n0-192" value="Yes" style="text;html=1;align=center;verticalAlign=middle;resizable=0;points=[];autosize=1;strokeColor=none;fillColor=none;" vertex="1" parent="1">
          <mxGeometry x="1500" y="260.5" width="40" height="30" as="geometry" />
        </mxCell>
        <mxCell id="iodD-ADhZu1srqg-s7n0-193" value="Yes" style="text;html=1;align=center;verticalAlign=middle;resizable=0;points=[];autosize=1;strokeColor=none;fillColor=none;" vertex="1" parent="1">
          <mxGeometry x="1250" y="280.5" width="40" height="30" as="geometry" />
        </mxCell>
        <mxCell id="iodD-ADhZu1srqg-s7n0-194" value="Yes" style="text;html=1;align=center;verticalAlign=middle;resizable=0;points=[];autosize=1;strokeColor=none;fillColor=none;" vertex="1" parent="1">
          <mxGeometry x="1270" y="320.5" width="40" height="30" as="geometry" />
        </mxCell>
        <mxCell id="iodD-ADhZu1srqg-s7n0-195" value="No" style="text;html=1;align=center;verticalAlign=middle;resizable=0;points=[];autosize=1;strokeColor=none;fillColor=none;" vertex="1" parent="1">
          <mxGeometry x="1230" y="367.5" width="40" height="30" as="geometry" />
        </mxCell>
        <mxCell id="iodD-ADhZu1srqg-s7n0-196" value="Yes" style="text;html=1;align=center;verticalAlign=middle;resizable=0;points=[];autosize=1;strokeColor=none;fillColor=none;" vertex="1" parent="1">
          <mxGeometry x="1290" y="410.5" width="40" height="30" as="geometry" />
        </mxCell>
        <mxCell id="iodD-ADhZu1srqg-s7n0-197" value="No" style="text;html=1;align=center;verticalAlign=middle;resizable=0;points=[];autosize=1;strokeColor=none;fillColor=none;" vertex="1" parent="1">
          <mxGeometry x="1250" y="460.5" width="40" height="30" as="geometry" />
        </mxCell>
        <mxCell id="iodD-ADhZu1srqg-s7n0-198" value="Yes" style="text;html=1;align=center;verticalAlign=middle;resizable=0;points=[];autosize=1;strokeColor=none;fillColor=none;" vertex="1" parent="1">
          <mxGeometry x="1290" y="565" width="40" height="30" as="geometry" />
        </mxCell>
        <mxCell id="iodD-ADhZu1srqg-s7n0-217" style="edgeStyle=orthogonalEdgeStyle;rounded=0;orthogonalLoop=1;jettySize=auto;html=1;" edge="1" parent="1" source="iodD-ADhZu1srqg-s7n0-202" target="iodD-ADhZu1srqg-s7n0-216">
          <mxGeometry relative="1" as="geometry" />
        </mxCell>
        <mxCell id="iodD-ADhZu1srqg-s7n0-202" value="Is Weather Snow?" style="rhombus;whiteSpace=wrap;html=1;" vertex="1" parent="1">
          <mxGeometry x="1340" y="50.5" width="100" height="100" as="geometry" />
        </mxCell>
        <mxCell id="iodD-ADhZu1srqg-s7n0-219" style="edgeStyle=orthogonalEdgeStyle;rounded=0;orthogonalLoop=1;jettySize=auto;html=1;entryX=0.5;entryY=0;entryDx=0;entryDy=0;" edge="1" parent="1" source="iodD-ADhZu1srqg-s7n0-216" target="4OK2XnqKNqhnvnKQo9YL-4">
          <mxGeometry relative="1" as="geometry">
            <Array as="points">
              <mxPoint x="1590" y="20" />
              <mxPoint x="1040" y="20" />
              <mxPoint x="1040" y="8" />
              <mxPoint x="450" y="8" />
            </Array>
          </mxGeometry>
        </mxCell>
        <mxCell id="iodD-ADhZu1srqg-s7n0-216" value="Display Error, Go back to Input Weather" style="rounded=1;whiteSpace=wrap;html=1;" vertex="1" parent="1">
          <mxGeometry x="1530" y="70.5" width="120" height="60" as="geometry" />
        </mxCell>
        <mxCell id="iodD-ADhZu1srqg-s7n0-218" value="No" style="text;html=1;align=center;verticalAlign=middle;resizable=0;points=[];autosize=1;strokeColor=none;fillColor=none;" vertex="1" parent="1">
          <mxGeometry x="1460" y="80" width="40" height="30" as="geometry" />
        </mxCell>
      </root>
    </mxGraphModel>
  </diagram>
</mxfile>
